<mxfile host="app.diagrams.net" agent="Mozilla/5.0 (Windows NT 10.0; Win64; x64; rv:130.0) Gecko/20100101 Firefox/130.0" version="24.7.14">
  <diagram name="Halaman-1" id="XN3QfdQtaIsq98Aue1sS">
    <mxGraphModel dx="1667" dy="1652" grid="1" gridSize="10" guides="1" tooltips="1" connect="1" arrows="1" fold="1" page="1" pageScale="1" pageWidth="827" pageHeight="1169" math="0" shadow="0">
      <root>
        <mxCell id="0" />
        <mxCell id="1" parent="0" />
        <mxCell id="0Nl4zaibiXINok6xMrLi-42" value="" style="edgeStyle=orthogonalEdgeStyle;rounded=0;orthogonalLoop=1;jettySize=auto;html=1;" parent="1" source="0Nl4zaibiXINok6xMrLi-1" target="0Nl4zaibiXINok6xMrLi-2" edge="1">
          <mxGeometry relative="1" as="geometry" />
        </mxCell>
        <mxCell id="0Nl4zaibiXINok6xMrLi-1" value="Start" style="strokeWidth=2;html=1;shape=mxgraph.flowchart.start_1;whiteSpace=wrap;" parent="1" vertex="1">
          <mxGeometry x="265" y="-260" width="190" height="100" as="geometry" />
        </mxCell>
        <mxCell id="0Nl4zaibiXINok6xMrLi-43" value="" style="edgeStyle=orthogonalEdgeStyle;rounded=0;orthogonalLoop=1;jettySize=auto;html=1;" parent="1" source="0Nl4zaibiXINok6xMrLi-2" target="0Nl4zaibiXINok6xMrLi-3" edge="1">
          <mxGeometry relative="1" as="geometry" />
        </mxCell>
        <mxCell id="0Nl4zaibiXINok6xMrLi-2" value="Output&amp;nbsp;&lt;div&gt;&quot;Selamat Datang di Atm&quot;&lt;/div&gt;" style="shape=parallelogram;html=1;strokeWidth=2;perimeter=parallelogramPerimeter;whiteSpace=wrap;rounded=1;arcSize=12;size=0.23;" parent="1" vertex="1">
          <mxGeometry x="215" y="-90" width="290" height="120" as="geometry" />
        </mxCell>
        <mxCell id="0Nl4zaibiXINok6xMrLi-44" value="" style="edgeStyle=orthogonalEdgeStyle;rounded=0;orthogonalLoop=1;jettySize=auto;html=1;" parent="1" source="0Nl4zaibiXINok6xMrLi-3" target="0Nl4zaibiXINok6xMrLi-4" edge="1">
          <mxGeometry relative="1" as="geometry" />
        </mxCell>
        <mxCell id="0Nl4zaibiXINok6xMrLi-3" value="Input&lt;div&gt;Username dan Password&lt;/div&gt;" style="shape=parallelogram;html=1;strokeWidth=2;perimeter=parallelogramPerimeter;whiteSpace=wrap;rounded=1;arcSize=12;size=0.23;" parent="1" vertex="1">
          <mxGeometry x="215" y="110" width="290" height="120" as="geometry" />
        </mxCell>
        <mxCell id="0Nl4zaibiXINok6xMrLi-45" value="" style="edgeStyle=orthogonalEdgeStyle;rounded=0;orthogonalLoop=1;jettySize=auto;html=1;" parent="1" source="0Nl4zaibiXINok6xMrLi-4" target="0Nl4zaibiXINok6xMrLi-5" edge="1">
          <mxGeometry relative="1" as="geometry" />
        </mxCell>
        <mxCell id="0Nl4zaibiXINok6xMrLi-4" value="&lt;div&gt;Process&lt;/div&gt;Verifikasi Username dan Password" style="rounded=1;whiteSpace=wrap;html=1;absoluteArcSize=1;arcSize=14;strokeWidth=2;" parent="1" vertex="1">
          <mxGeometry x="282.5" y="320" width="155" height="160" as="geometry" />
        </mxCell>
        <mxCell id="0Nl4zaibiXINok6xMrLi-46" value="FALSE" style="edgeStyle=orthogonalEdgeStyle;rounded=0;orthogonalLoop=1;jettySize=auto;html=1;" parent="1" source="0Nl4zaibiXINok6xMrLi-5" target="0Nl4zaibiXINok6xMrLi-6" edge="1">
          <mxGeometry relative="1" as="geometry" />
        </mxCell>
        <mxCell id="0Nl4zaibiXINok6xMrLi-80" value="" style="edgeStyle=orthogonalEdgeStyle;rounded=0;orthogonalLoop=1;jettySize=auto;html=1;" parent="1" source="0Nl4zaibiXINok6xMrLi-5" target="0Nl4zaibiXINok6xMrLi-79" edge="1">
          <mxGeometry relative="1" as="geometry" />
        </mxCell>
        <mxCell id="0Nl4zaibiXINok6xMrLi-5" value="If Valid" style="strokeWidth=2;html=1;shape=mxgraph.flowchart.decision;whiteSpace=wrap;" parent="1" vertex="1">
          <mxGeometry x="285" y="570" width="150" height="150" as="geometry" />
        </mxCell>
        <mxCell id="0Nl4zaibiXINok6xMrLi-6" value="Output&amp;nbsp;&lt;div&gt;&quot;Username atau Password Salah&quot;&lt;/div&gt;" style="shape=parallelogram;html=1;strokeWidth=2;perimeter=parallelogramPerimeter;whiteSpace=wrap;rounded=1;arcSize=12;size=0.23;" parent="1" vertex="1">
          <mxGeometry x="530" y="585" width="290" height="120" as="geometry" />
        </mxCell>
        <mxCell id="0Nl4zaibiXINok6xMrLi-48" value="" style="edgeStyle=orthogonalEdgeStyle;rounded=0;orthogonalLoop=1;jettySize=auto;html=1;" parent="1" source="0Nl4zaibiXINok6xMrLi-7" target="0Nl4zaibiXINok6xMrLi-10" edge="1">
          <mxGeometry relative="1" as="geometry" />
        </mxCell>
        <mxCell id="0Nl4zaibiXINok6xMrLi-7" value="Output&amp;nbsp;&lt;div&gt;Menu ATM&lt;/div&gt;" style="shape=parallelogram;html=1;strokeWidth=2;perimeter=parallelogramPerimeter;whiteSpace=wrap;rounded=1;arcSize=12;size=0.23;" parent="1" vertex="1">
          <mxGeometry x="215" y="1000" width="290" height="120" as="geometry" />
        </mxCell>
        <mxCell id="0Nl4zaibiXINok6xMrLi-49" value="TRUE" style="edgeStyle=orthogonalEdgeStyle;rounded=0;orthogonalLoop=1;jettySize=auto;html=1;" parent="1" source="0Nl4zaibiXINok6xMrLi-10" target="0Nl4zaibiXINok6xMrLi-11" edge="1">
          <mxGeometry relative="1" as="geometry" />
        </mxCell>
        <mxCell id="0Nl4zaibiXINok6xMrLi-50" value="FALSE" style="edgeStyle=orthogonalEdgeStyle;rounded=0;orthogonalLoop=1;jettySize=auto;html=1;" parent="1" source="0Nl4zaibiXINok6xMrLi-10" target="0Nl4zaibiXINok6xMrLi-12" edge="1">
          <mxGeometry relative="1" as="geometry" />
        </mxCell>
        <mxCell id="0Nl4zaibiXINok6xMrLi-10" value="Lihat Info Akun" style="strokeWidth=2;html=1;shape=mxgraph.flowchart.decision;whiteSpace=wrap;" parent="1" vertex="1">
          <mxGeometry x="285" y="1190" width="150" height="150" as="geometry" />
        </mxCell>
        <mxCell id="0Nl4zaibiXINok6xMrLi-11" value="Output&amp;nbsp;&lt;div&gt;Info Akun&lt;/div&gt;" style="shape=parallelogram;html=1;strokeWidth=2;perimeter=parallelogramPerimeter;whiteSpace=wrap;rounded=1;arcSize=12;size=0.23;" parent="1" vertex="1">
          <mxGeometry x="520" y="1205" width="290" height="120" as="geometry" />
        </mxCell>
        <mxCell id="0Nl4zaibiXINok6xMrLi-51" value="TRUE" style="edgeStyle=orthogonalEdgeStyle;rounded=0;orthogonalLoop=1;jettySize=auto;html=1;" parent="1" source="0Nl4zaibiXINok6xMrLi-12" target="0Nl4zaibiXINok6xMrLi-13" edge="1">
          <mxGeometry relative="1" as="geometry" />
        </mxCell>
        <mxCell id="0Nl4zaibiXINok6xMrLi-52" value="FALSE" style="edgeStyle=orthogonalEdgeStyle;rounded=0;orthogonalLoop=1;jettySize=auto;html=1;" parent="1" source="0Nl4zaibiXINok6xMrLi-12" target="0Nl4zaibiXINok6xMrLi-14" edge="1">
          <mxGeometry relative="1" as="geometry" />
        </mxCell>
        <mxCell id="0Nl4zaibiXINok6xMrLi-12" value="Lihat Data Akun" style="strokeWidth=2;html=1;shape=mxgraph.flowchart.decision;whiteSpace=wrap;" parent="1" vertex="1">
          <mxGeometry x="285" y="1410" width="150" height="150" as="geometry" />
        </mxCell>
        <mxCell id="0Nl4zaibiXINok6xMrLi-13" value="Output&amp;nbsp;&lt;div&gt;Lihat Akun&lt;/div&gt;" style="shape=parallelogram;html=1;strokeWidth=2;perimeter=parallelogramPerimeter;whiteSpace=wrap;rounded=1;arcSize=12;size=0.23;" parent="1" vertex="1">
          <mxGeometry x="520" y="1425" width="290" height="120" as="geometry" />
        </mxCell>
        <mxCell id="0Nl4zaibiXINok6xMrLi-53" value="TRUE" style="edgeStyle=orthogonalEdgeStyle;rounded=0;orthogonalLoop=1;jettySize=auto;html=1;" parent="1" source="0Nl4zaibiXINok6xMrLi-14" target="0Nl4zaibiXINok6xMrLi-15" edge="1">
          <mxGeometry relative="1" as="geometry" />
        </mxCell>
        <mxCell id="0Nl4zaibiXINok6xMrLi-54" value="FALSE" style="edgeStyle=orthogonalEdgeStyle;rounded=0;orthogonalLoop=1;jettySize=auto;html=1;" parent="1" source="0Nl4zaibiXINok6xMrLi-14" target="0Nl4zaibiXINok6xMrLi-16" edge="1">
          <mxGeometry relative="1" as="geometry" />
        </mxCell>
        <mxCell id="0Nl4zaibiXINok6xMrLi-14" value="Tambahkan Saldo" style="strokeWidth=2;html=1;shape=mxgraph.flowchart.decision;whiteSpace=wrap;" parent="1" vertex="1">
          <mxGeometry x="285" y="1610" width="150" height="150" as="geometry" />
        </mxCell>
        <mxCell id="0Nl4zaibiXINok6xMrLi-61" style="edgeStyle=orthogonalEdgeStyle;rounded=0;orthogonalLoop=1;jettySize=auto;html=1;" parent="1" source="0Nl4zaibiXINok6xMrLi-15" target="0Nl4zaibiXINok6xMrLi-22" edge="1">
          <mxGeometry relative="1" as="geometry" />
        </mxCell>
        <mxCell id="0Nl4zaibiXINok6xMrLi-15" value="Input&lt;div&gt;Saldo yang ingin Ditambahkan&lt;/div&gt;" style="shape=parallelogram;html=1;strokeWidth=2;perimeter=parallelogramPerimeter;whiteSpace=wrap;rounded=1;arcSize=12;size=0.23;" parent="1" vertex="1">
          <mxGeometry x="520" y="1625" width="290" height="120" as="geometry" />
        </mxCell>
        <mxCell id="0Nl4zaibiXINok6xMrLi-55" value="TRUE" style="edgeStyle=orthogonalEdgeStyle;rounded=0;orthogonalLoop=1;jettySize=auto;html=1;" parent="1" source="0Nl4zaibiXINok6xMrLi-16" target="0Nl4zaibiXINok6xMrLi-17" edge="1">
          <mxGeometry relative="1" as="geometry" />
        </mxCell>
        <mxCell id="0Nl4zaibiXINok6xMrLi-56" value="FALSE" style="edgeStyle=orthogonalEdgeStyle;rounded=0;orthogonalLoop=1;jettySize=auto;html=1;" parent="1" source="0Nl4zaibiXINok6xMrLi-16" target="0Nl4zaibiXINok6xMrLi-30" edge="1">
          <mxGeometry relative="1" as="geometry" />
        </mxCell>
        <mxCell id="0Nl4zaibiXINok6xMrLi-16" value="Lihat Info Akun" style="strokeWidth=2;html=1;shape=mxgraph.flowchart.decision;whiteSpace=wrap;" parent="1" vertex="1">
          <mxGeometry x="285" y="1830" width="150" height="150" as="geometry" />
        </mxCell>
        <mxCell id="0Nl4zaibiXINok6xMrLi-62" style="edgeStyle=orthogonalEdgeStyle;rounded=0;orthogonalLoop=1;jettySize=auto;html=1;" parent="1" source="0Nl4zaibiXINok6xMrLi-17" target="0Nl4zaibiXINok6xMrLi-26" edge="1">
          <mxGeometry relative="1" as="geometry" />
        </mxCell>
        <mxCell id="0Nl4zaibiXINok6xMrLi-17" value="Input&lt;div&gt;Saldo yang ingin Ditarik&lt;/div&gt;" style="shape=parallelogram;html=1;strokeWidth=2;perimeter=parallelogramPerimeter;whiteSpace=wrap;rounded=1;arcSize=12;size=0.23;" parent="1" vertex="1">
          <mxGeometry x="520" y="1845" width="290" height="120" as="geometry" />
        </mxCell>
        <mxCell id="0Nl4zaibiXINok6xMrLi-64" style="edgeStyle=orthogonalEdgeStyle;rounded=0;orthogonalLoop=1;jettySize=auto;html=1;" parent="1" source="0Nl4zaibiXINok6xMrLi-22" target="0Nl4zaibiXINok6xMrLi-23" edge="1">
          <mxGeometry relative="1" as="geometry" />
        </mxCell>
        <mxCell id="0Nl4zaibiXINok6xMrLi-22" value="&lt;div&gt;Process&lt;/div&gt;&lt;div&gt;Saldo Awal + Saldo yang ingin Ditambahkan&lt;/div&gt;" style="rounded=1;whiteSpace=wrap;html=1;absoluteArcSize=1;arcSize=14;strokeWidth=2;" parent="1" vertex="1">
          <mxGeometry x="952.5" y="1605" width="155" height="160" as="geometry" />
        </mxCell>
        <mxCell id="0Nl4zaibiXINok6xMrLi-23" value="Output&amp;nbsp;&lt;div&gt;&quot;Saldo Berhasil Ditambahkan&quot;&lt;/div&gt;" style="shape=parallelogram;html=1;strokeWidth=2;perimeter=parallelogramPerimeter;whiteSpace=wrap;rounded=1;arcSize=12;size=0.23;" parent="1" vertex="1">
          <mxGeometry x="1241" y="1625" width="290" height="120" as="geometry" />
        </mxCell>
        <mxCell id="0Nl4zaibiXINok6xMrLi-63" value="" style="edgeStyle=orthogonalEdgeStyle;rounded=0;orthogonalLoop=1;jettySize=auto;html=1;" parent="1" source="0Nl4zaibiXINok6xMrLi-26" target="0Nl4zaibiXINok6xMrLi-29" edge="1">
          <mxGeometry relative="1" as="geometry" />
        </mxCell>
        <mxCell id="0Nl4zaibiXINok6xMrLi-65" style="edgeStyle=orthogonalEdgeStyle;rounded=0;orthogonalLoop=1;jettySize=auto;html=1;" parent="1" source="0Nl4zaibiXINok6xMrLi-26" target="0Nl4zaibiXINok6xMrLi-27" edge="1">
          <mxGeometry relative="1" as="geometry" />
        </mxCell>
        <mxCell id="0Nl4zaibiXINok6xMrLi-26" value="if saldo &amp;gt; saldo yang ingin ditarik" style="strokeWidth=2;html=1;shape=mxgraph.flowchart.decision;whiteSpace=wrap;" parent="1" vertex="1">
          <mxGeometry x="957.5" y="1830" width="150" height="150" as="geometry" />
        </mxCell>
        <mxCell id="0Nl4zaibiXINok6xMrLi-66" value="" style="edgeStyle=orthogonalEdgeStyle;rounded=0;orthogonalLoop=1;jettySize=auto;html=1;" parent="1" source="0Nl4zaibiXINok6xMrLi-27" target="0Nl4zaibiXINok6xMrLi-28" edge="1">
          <mxGeometry relative="1" as="geometry" />
        </mxCell>
        <mxCell id="0Nl4zaibiXINok6xMrLi-27" value="&lt;div&gt;Process&lt;/div&gt;&lt;div&gt;saldo = saldo - saldo yang ingin ditarik&lt;/div&gt;" style="rounded=1;whiteSpace=wrap;html=1;absoluteArcSize=1;arcSize=14;strokeWidth=2;" parent="1" vertex="1">
          <mxGeometry x="1308.5" y="1825" width="155" height="160" as="geometry" />
        </mxCell>
        <mxCell id="0Nl4zaibiXINok6xMrLi-28" value="Output&amp;nbsp;&lt;div&gt;&quot;Saldo Berhasil Ditarik&quot;&lt;/div&gt;" style="shape=parallelogram;html=1;strokeWidth=2;perimeter=parallelogramPerimeter;whiteSpace=wrap;rounded=1;arcSize=12;size=0.23;" parent="1" vertex="1">
          <mxGeometry x="1570" y="1845" width="290" height="120" as="geometry" />
        </mxCell>
        <mxCell id="0Nl4zaibiXINok6xMrLi-29" value="Output&amp;nbsp;&lt;div&gt;&quot;Saldo Berhasil Ditarik&quot;&lt;/div&gt;" style="shape=parallelogram;html=1;strokeWidth=2;perimeter=parallelogramPerimeter;whiteSpace=wrap;rounded=1;arcSize=12;size=0.23;" parent="1" vertex="1">
          <mxGeometry x="887.5" y="2090" width="290" height="120" as="geometry" />
        </mxCell>
        <mxCell id="0Nl4zaibiXINok6xMrLi-57" style="edgeStyle=orthogonalEdgeStyle;rounded=0;orthogonalLoop=1;jettySize=auto;html=1;" parent="1" source="0Nl4zaibiXINok6xMrLi-30" target="0Nl4zaibiXINok6xMrLi-32" edge="1">
          <mxGeometry relative="1" as="geometry" />
        </mxCell>
        <mxCell id="0Nl4zaibiXINok6xMrLi-59" value="" style="edgeStyle=orthogonalEdgeStyle;rounded=0;orthogonalLoop=1;jettySize=auto;html=1;" parent="1" source="0Nl4zaibiXINok6xMrLi-30" target="0Nl4zaibiXINok6xMrLi-31" edge="1">
          <mxGeometry relative="1" as="geometry" />
        </mxCell>
        <mxCell id="0Nl4zaibiXINok6xMrLi-30" value="Lihat Riwayat Transaksi" style="strokeWidth=2;html=1;shape=mxgraph.flowchart.decision;whiteSpace=wrap;" parent="1" vertex="1">
          <mxGeometry x="285" y="2310" width="150" height="150" as="geometry" />
        </mxCell>
        <mxCell id="0Nl4zaibiXINok6xMrLi-31" value="Output&amp;nbsp;&lt;div&gt;Riwayat Transaksi&lt;/div&gt;" style="shape=parallelogram;html=1;strokeWidth=2;perimeter=parallelogramPerimeter;whiteSpace=wrap;rounded=1;arcSize=12;size=0.23;" parent="1" vertex="1">
          <mxGeometry x="522.5" y="2325" width="290" height="120" as="geometry" />
        </mxCell>
        <mxCell id="0Nl4zaibiXINok6xMrLi-58" style="edgeStyle=orthogonalEdgeStyle;rounded=0;orthogonalLoop=1;jettySize=auto;html=1;" parent="1" source="0Nl4zaibiXINok6xMrLi-32" target="0Nl4zaibiXINok6xMrLi-40" edge="1">
          <mxGeometry relative="1" as="geometry" />
        </mxCell>
        <mxCell id="0Nl4zaibiXINok6xMrLi-60" value="" style="edgeStyle=orthogonalEdgeStyle;rounded=0;orthogonalLoop=1;jettySize=auto;html=1;" parent="1" source="0Nl4zaibiXINok6xMrLi-32" target="0Nl4zaibiXINok6xMrLi-33" edge="1">
          <mxGeometry relative="1" as="geometry" />
        </mxCell>
        <mxCell id="0Nl4zaibiXINok6xMrLi-32" value="Keluar" style="strokeWidth=2;html=1;shape=mxgraph.flowchart.decision;whiteSpace=wrap;" parent="1" vertex="1">
          <mxGeometry x="285" y="2640" width="150" height="150" as="geometry" />
        </mxCell>
        <mxCell id="0Nl4zaibiXINok6xMrLi-67" style="edgeStyle=orthogonalEdgeStyle;rounded=0;orthogonalLoop=1;jettySize=auto;html=1;" parent="1" source="0Nl4zaibiXINok6xMrLi-33" target="0Nl4zaibiXINok6xMrLi-41" edge="1">
          <mxGeometry relative="1" as="geometry" />
        </mxCell>
        <mxCell id="0Nl4zaibiXINok6xMrLi-33" value="Output&amp;nbsp;&lt;div&gt;&quot;Terima Kasih Telah Menggunakan ATM&quot;&lt;/div&gt;" style="shape=parallelogram;html=1;strokeWidth=2;perimeter=parallelogramPerimeter;whiteSpace=wrap;rounded=1;arcSize=12;size=0.23;" parent="1" vertex="1">
          <mxGeometry x="-190" y="2655" width="290" height="120" as="geometry" />
        </mxCell>
        <mxCell id="0Nl4zaibiXINok6xMrLi-89" style="edgeStyle=orthogonalEdgeStyle;rounded=0;orthogonalLoop=1;jettySize=auto;html=1;entryX=1;entryY=0.5;entryDx=0;entryDy=0;entryPerimeter=0;" parent="1" source="0Nl4zaibiXINok6xMrLi-40" target="0Nl4zaibiXINok6xMrLi-79" edge="1">
          <mxGeometry relative="1" as="geometry">
            <mxPoint x="440" y="850" as="targetPoint" />
            <Array as="points">
              <mxPoint x="2260" y="2715" />
              <mxPoint x="2260" y="842" />
            </Array>
          </mxGeometry>
        </mxCell>
        <mxCell id="0Nl4zaibiXINok6xMrLi-40" value="Output&amp;nbsp;&lt;div&gt;&quot;Pemilihan Menu Tidak Valid&quot;&lt;/div&gt;" style="shape=parallelogram;html=1;strokeWidth=2;perimeter=parallelogramPerimeter;whiteSpace=wrap;rounded=1;arcSize=12;size=0.23;" parent="1" vertex="1">
          <mxGeometry x="522.5" y="2655" width="290" height="120" as="geometry" />
        </mxCell>
        <mxCell id="0Nl4zaibiXINok6xMrLi-41" value="End" style="strokeWidth=2;html=1;shape=mxgraph.flowchart.start_1;whiteSpace=wrap;" parent="1" vertex="1">
          <mxGeometry x="-490" y="2665" width="190" height="100" as="geometry" />
        </mxCell>
        <mxCell id="0Nl4zaibiXINok6xMrLi-81" value="TRUE" style="edgeStyle=orthogonalEdgeStyle;rounded=0;orthogonalLoop=1;jettySize=auto;html=1;" parent="1" source="0Nl4zaibiXINok6xMrLi-79" target="0Nl4zaibiXINok6xMrLi-7" edge="1">
          <mxGeometry relative="1" as="geometry" />
        </mxCell>
        <mxCell id="0Nl4zaibiXINok6xMrLi-88" style="edgeStyle=orthogonalEdgeStyle;rounded=0;orthogonalLoop=1;jettySize=auto;html=1;" parent="1" source="0Nl4zaibiXINok6xMrLi-79" target="0Nl4zaibiXINok6xMrLi-41" edge="1">
          <mxGeometry relative="1" as="geometry" />
        </mxCell>
        <mxCell id="0Nl4zaibiXINok6xMrLi-79" value="While True" style="strokeWidth=2;html=1;shape=mxgraph.flowchart.decision;whiteSpace=wrap;" parent="1" vertex="1">
          <mxGeometry x="285" y="767" width="150" height="150" as="geometry" />
        </mxCell>
        <mxCell id="0Nl4zaibiXINok6xMrLi-82" style="edgeStyle=orthogonalEdgeStyle;rounded=0;orthogonalLoop=1;jettySize=auto;html=1;entryX=1;entryY=0.5;entryDx=0;entryDy=0;entryPerimeter=0;" parent="1" source="0Nl4zaibiXINok6xMrLi-11" target="0Nl4zaibiXINok6xMrLi-79" edge="1">
          <mxGeometry relative="1" as="geometry">
            <Array as="points">
              <mxPoint x="2260" y="1265" />
              <mxPoint x="2260" y="842" />
            </Array>
          </mxGeometry>
        </mxCell>
        <mxCell id="0Nl4zaibiXINok6xMrLi-83" style="edgeStyle=orthogonalEdgeStyle;rounded=0;orthogonalLoop=1;jettySize=auto;html=1;entryX=1;entryY=0.5;entryDx=0;entryDy=0;entryPerimeter=0;" parent="1" source="0Nl4zaibiXINok6xMrLi-13" target="0Nl4zaibiXINok6xMrLi-79" edge="1">
          <mxGeometry relative="1" as="geometry">
            <Array as="points">
              <mxPoint x="2260" y="1485" />
              <mxPoint x="2260" y="842" />
            </Array>
          </mxGeometry>
        </mxCell>
        <mxCell id="0Nl4zaibiXINok6xMrLi-84" style="edgeStyle=orthogonalEdgeStyle;rounded=0;orthogonalLoop=1;jettySize=auto;html=1;entryX=1;entryY=0.5;entryDx=0;entryDy=0;entryPerimeter=0;" parent="1" source="0Nl4zaibiXINok6xMrLi-28" target="0Nl4zaibiXINok6xMrLi-79" edge="1">
          <mxGeometry relative="1" as="geometry">
            <Array as="points">
              <mxPoint x="2260" y="1905" />
              <mxPoint x="2260" y="842" />
            </Array>
          </mxGeometry>
        </mxCell>
        <mxCell id="0Nl4zaibiXINok6xMrLi-85" style="edgeStyle=orthogonalEdgeStyle;rounded=0;orthogonalLoop=1;jettySize=auto;html=1;entryX=1;entryY=0.5;entryDx=0;entryDy=0;entryPerimeter=0;" parent="1" source="0Nl4zaibiXINok6xMrLi-23" target="0Nl4zaibiXINok6xMrLi-79" edge="1">
          <mxGeometry relative="1" as="geometry">
            <Array as="points">
              <mxPoint x="2260" y="1685" />
              <mxPoint x="2260" y="842" />
            </Array>
          </mxGeometry>
        </mxCell>
        <mxCell id="0Nl4zaibiXINok6xMrLi-86" style="edgeStyle=orthogonalEdgeStyle;rounded=0;orthogonalLoop=1;jettySize=auto;html=1;entryX=1;entryY=0.5;entryDx=0;entryDy=0;entryPerimeter=0;" parent="1" source="0Nl4zaibiXINok6xMrLi-29" target="0Nl4zaibiXINok6xMrLi-79" edge="1">
          <mxGeometry relative="1" as="geometry">
            <Array as="points">
              <mxPoint x="2260" y="2150" />
              <mxPoint x="2260" y="842" />
            </Array>
          </mxGeometry>
        </mxCell>
        <mxCell id="0Nl4zaibiXINok6xMrLi-87" style="edgeStyle=orthogonalEdgeStyle;rounded=0;orthogonalLoop=1;jettySize=auto;html=1;entryX=1;entryY=0.5;entryDx=0;entryDy=0;entryPerimeter=0;" parent="1" source="0Nl4zaibiXINok6xMrLi-31" target="0Nl4zaibiXINok6xMrLi-79" edge="1">
          <mxGeometry relative="1" as="geometry">
            <Array as="points">
              <mxPoint x="2260" y="2385" />
              <mxPoint x="2260" y="842" />
            </Array>
          </mxGeometry>
        </mxCell>
      </root>
    </mxGraphModel>
  </diagram>
</mxfile>
